<?xml version="1.0" encoding="utf-8"?>
<!-- Generator: Adobe Illustrator 27.5.0, SVG Export Plug-In . SVG Version: 6.00 Build 0)  -->
<svg version="1.1" xmlns="http://www.w3.org/2000/svg" xmlns:xlink="http://www.w3.org/1999/xlink" x="0px" y="0px"
	 viewBox="0 0 1200 1200" style="enable-background:new 0 0 1200 1200;" xml:space="preserve">
<g id="BG">
	<g>
		<g>
			<defs>
				<rect id="SVGID_1_" width="1200" height="1200"/>
			</defs>
			<use xlink:href="#SVGID_1_"  style="overflow:visible;fill:#F2F9F9;"/>
			<clipPath id="SVGID_00000137812857602474493350000004013687367954370191_">
				<use xlink:href="#SVGID_1_"  style="overflow:visible;"/>
			</clipPath>
			<g style="clip-path:url(#SVGID_00000137812857602474493350000004013687367954370191_);">
				<g style="opacity:0.5;">
					
						<radialGradient id="SVGID_00000103969874042612049890000008155708131874751414_" cx="596.0226" cy="610.5392" r="777.3019" gradientUnits="userSpaceOnUse">
						<stop  offset="0" style="stop-color:#FFFFFF"/>
						<stop  offset="0.1822" style="stop-color:#D6D6D6"/>
						<stop  offset="0.5911" style="stop-color:#6E6E6E"/>
						<stop  offset="1" style="stop-color:#000000"/>
					</radialGradient>
					<path style="fill:url(#SVGID_00000103969874042612049890000008155708131874751414_);" d="M748.472,1436.318L600,600
						l289.579,798.51l-141.106,37.809v-0.001H748.472z M526.958,1446.25h146.084h0.001L600,600l-73.042,846.248V1446.25z
						 M451.528,1436.32L600,600l-289.578,798.508L451.528,1436.32z M240.131,1369.395L600,600L113.62,1296.351L240.131,1369.395z
						 M53.259,1250.038L600,600l-650.037,546.74L53.259,1250.038z M-96.353,1086.382L600,600l-769.394,359.868L-96.353,1086.382z
						 M-198.51,889.579L600,600l-836.318,148.473L-198.51,889.579z M-246.25,673.043L600,600l-846.248-73.041L-246.25,673.043z
						 M-236.32,451.528L600,600l-798.509-289.578L-236.32,451.528z M-169.395,240.132L600,600L-96.352,113.62L-169.395,240.132z
						 M-50.038,53.26L600,600L53.26-50.035L-50.038,53.26z M113.618-96.353L600,600L240.131-169.393L113.618-96.353z
						 M310.421-198.51L600,600L451.527-236.317L310.421-198.51z M526.957-246.25L600,600l73.04-846.248L526.957-246.25z
						 M748.472-236.319L600,600l289.577-798.508L748.472-236.319z M959.868-169.395L600,600l486.379-696.352L959.868-169.395z
						 M1146.74-50.038L600,600l650.035-546.74L1146.74-50.038z M1296.353,113.618L600,600l769.392-359.869L1296.353,113.618z
						 M1398.51,310.421L600,600l836.317-148.473L1398.51,310.421z M1446.25,526.957L600,600l846.248,73.041L1446.25,526.957z
						 M1436.32,748.472L600,600l798.509,289.577L1436.32,748.472z M1369.395,959.868L600,600l696.352,486.38L1369.395,959.868z
						 M1250.038,1146.74L600,600l546.741,650.036L1250.038,1146.74z M1086.382,1296.352L600,600l359.869,769.394L1086.382,1296.352z
						"/>
				</g>
			</g>
		</g>
	</g>
</g>
<g id="Object">
	<g>
		<g>
			<g>
				<path style="fill:#EEB13D;" d="M108.291,177.653l-25.016-34.321c-0.411-0.565-1.075-0.891-1.773-0.872l-42.455,1.151
					c-1.759,0.048-2.809-1.942-1.777-3.367l24.91-34.398c0.41-0.566,0.515-1.297,0.281-1.956L48.248,63.87
					c-0.589-1.658,0.979-3.272,2.653-2.73l40.412,13.062c0.665,0.215,1.393,0.089,1.947-0.337l33.67-25.885
					c1.395-1.073,3.414-0.08,3.417,1.68l0.065,42.47c0.001,0.699,0.346,1.352,0.922,1.747l35.023,24.023
					c1.451,0.995,1.131,3.222-0.542,3.769l-40.371,13.186c-0.664,0.217-1.179,0.747-1.377,1.417l-12.025,40.732
					C111.545,178.691,109.328,179.075,108.291,177.653z"/>
			</g>
		</g>
		<g>
			<g>
				<path style="fill:#EEB13D;" d="M1064.631,172.889l-4.302-44.862c-0.071-0.738-0.5-1.394-1.148-1.754l-39.395-21.889
					c-1.632-0.907-1.516-3.292,0.197-4.035l41.337-17.954c0.68-0.295,1.171-0.907,1.313-1.634l8.644-44.231
					c0.358-1.833,2.662-2.459,3.899-1.06l29.849,33.765c0.491,0.556,1.224,0.834,1.96,0.744l44.737-5.447
					c1.853-0.226,3.161,1.772,2.213,3.38l-22.889,38.823c-0.377,0.639-0.415,1.422-0.102,2.094l19.005,40.864
					c0.787,1.693-0.708,3.554-2.531,3.149l-43.995-9.772c-0.724-0.161-1.48,0.045-2.023,0.55l-32.991,30.703
					C1067.042,175.595,1064.809,174.747,1064.631,172.889z"/>
			</g>
		</g>
		<g>
			<g>
				<path style="fill:#2483A4;" d="M933.322,211.217c-0.096,0.146-0.194,0.29-0.295,0.43
					C933.128,211.507,933.226,211.363,933.322,211.217z"/>
			</g>
			<g>
				<path style="fill:#2483A4;" d="M932.992,211.696c-0.077,0.106-0.157,0.207-0.237,0.307
					C932.836,211.904,932.915,211.802,932.992,211.696z"/>
			</g>
			<g>
				<path style="fill:#2483A4;" d="M932.519,212.275c-0.01,0.011-0.02,0.022-0.03,0.033
					C932.499,212.297,932.509,212.286,932.519,212.275z"/>
			</g>
			<g>
				<path style="fill:#2483A4;" d="M935.979,219.125c0.001,0,0.001,0.001,0.001,0.001c0.435,0.078,0.783-0.058,0.93-0.419
					C936.764,219.068,936.415,219.204,935.979,219.125z"/>
			</g>
			<g>
				<path style="fill:#2483A4;" d="M931.396,208.604c-1.389,0.177-2.396,2.191-1.837,3.92
					C929.06,210.677,930.048,208.775,931.396,208.604z"/>
			</g>
			<g>
				<path style="fill:#2483A4;" d="M947.583,198.578c0.355-0.23,0.701-0.294,1.04-0.269l-1.003-0.268
					c-0.147-0.039-0.279-0.114-0.388-0.215C947.312,198.043,947.493,198.352,947.583,198.578z"/>
			</g>
			<g>
				<path style="fill:#2483A4;" d="M949.63,198.578c0.496,0.193,0.982,0.411,1.467,0.392L949.63,198.578z"/>
			</g>
			<g>
				<path style="fill:#2483A4;" d="M913.628,196.192l-3.225,0.088c-0.299,0.527-0.397,1.227-0.388,1.88
					c0.002,0.122,0.029,0.269,0.057,0.414l1.504,1.855C912.6,199.19,913.263,197.795,913.628,196.192z"/>
			</g>
			<g>
				<path style="fill:#2483A4;" d="M915.459,199.466c-0.377-0.943-0.012-1.594,0.907-1.801c0.77-0.17,1.03,0.325,0.854,1.055
					c0.736,0.258,1.413,0.6,1.89,1.251c0.655-1.222-0.058-2.624,0.236-3.935l-2.99,0.081c-0.13,0.119-0.256,0.243-0.371,0.382
					c-1.24,1.511-2.526,2.99-3.826,4.453c-0.029,0.033-0.067,0.046-0.101,0.07l2.956,3.648c0.053-0.067,0.109-0.132,0.161-0.2
					C916.36,202.893,916.881,201.22,915.459,199.466z"/>
			</g>
			<g>
				<path style="fill:#2483A4;" d="M919.928,209.924c0.44-0.303,0.882-0.613,1.319-0.917c0.732-1.329-0.595-2.178-0.827-3.286
					c-0.125-0.617-0.763-0.12-1.021,0.177c-0.426,0.492-0.752,1.072-1.16,1.664c-0.582-2.193-0.449-2.489,1.367-3.132
					c0.136-0.045,0.399-0.057,0.404-0.11c0.301-1.889,1.893-3.066,2.598-4.578c0.601-1.288,1.258-2.565,1.901-3.846l-5.163,0.141
					c-0.294,1.311,0.418,2.713-0.236,3.935c-0.165,0.41-0.333,0.827-0.499,1.24c-0.874,1.671-1.202,3.6-2.161,5.231l2.989,3.688
					C919.582,210.053,919.739,209.983,919.928,209.924z"/>
			</g>
			<g>
				<path style="fill:#2483A4;" d="M915.985,196.5c0.115-0.139,0.241-0.263,0.371-0.382l-2.729,0.074
					c-0.365,1.603-1.029,2.998-2.052,4.237l0.482,0.595c0.033-0.024,0.072-0.038,0.101-0.07
					C913.459,199.491,914.745,198.012,915.985,196.5z"/>
			</g>
			<g>
				<path style="fill:#2483A4;" d="M928.082,197.764c-0.516,0.725-0.852,0.452-1.228-0.287c-0.312-0.606-2.701,0.765-2.374,1.47
					c0.489,1.06-1.925,3.06,1.148,3.371c0.8,0.08-0.481,1.513-0.335,2.438c0.072,0.475-0.489,1.078-1.046,0.882
					c-1.095-0.385,0.555-0.899-0.019-1.369c-1.799,0.737-1.984,1.067-1.289,2.656c0.342,0.78,0.584,1.527,0.133,2.33
					c0.38,0.764,1.462,0.788,1.734,1.665c0.457,0.453,0.567,0.978,0.327,1.575c0.483,0.747,0.989,1.217,2.026,1.403
					c1.763,0.323,0.627-0.784,0.79-1.233c0.691-1.864,0.729-4.087,3.046-5.082c-2.42-1.077-2.251-1.213-0.469-2.963
					c1.632-1.609,2.008-4.028,2.674-6.199c-1.192,0.059-0.677-0.618-0.49-1.151c-1.162,0.424-0.673,1.443-0.879,2.244
					c-0.252,1.011-0.751,1.961-1.258,3.221c-0.812-1.021-0.725-1.822-0.408-2.23c0.73-0.947,0.739-1.793,0.35-2.861
					c-0.299-0.811,0.076-1.665,0.78-2.128c0.694-0.453,1.415-0.201,1.912,0.503c0.075-0.126,0.113-0.314,0.226-0.372
					c2.348-1.2,3.25-3.321,3.681-5.749c-2.385,0.363-3.969,1.501-4.255,4.101c-0.056,0.517-1.142,0.691-1.237,0.276
					c-0.145-0.631-0.637-0.768-1.089-0.929l-1.313,2.023c-0.164,0.253-0.443,0.41-0.745,0.418l-0.021,0.001
					C928.878,196.154,928.484,197.206,928.082,197.764z M926.029,207.674c0.652,0.456,1.405,0.98,1.111,1.943
					c-0.222,0.715-0.816,0.449-1.292,0.257c-0.801-0.319-1.158-0.874-0.871-1.691C925.208,207.662,925.567,207.354,926.029,207.674z
					"/>
			</g>
			<g>
				<path style="fill:#2483A4;" d="M946.968,232.342c0.041-1.02-0.039-1.937,0.397-3.032c0.584-1.468-0.68-2.63-2.291-3.019
					c0.036,0.633,0.073,1.27,0.129,2.204c-1.184-0.774-1.945-2.42-3.443-1.137c0.753,1.07,0.633,1.786,0.005,2.295l4.914,3.369
					C946.747,232.809,946.854,232.577,946.968,232.342z"/>
			</g>
			<g>
				<path style="fill:#2483A4;" d="M949.254,228.557c0.644,1.507-1.393,2.442-0.847,3.943c0.222,0.608,0.128,1.125-0.395,1.437
					l2.288,1.569c0.051,0.035,0.106,0.055,0.159,0.079c-0.036-0.527-0.088-1.121,0.061-1.565c0.297-0.873,0.532-1.569,1.084-1.803
					l-0.345-6.539c-0.182,0.156-0.294,0.386-0.414,0.617C950.42,227.119,951.158,228.77,949.254,228.557z"/>
			</g>
			<g>
				<path style="fill:#2483A4;" d="M950.521,234.02c-0.15,0.443-0.097,1.038-0.061,1.565c0.602,0.263,1.313-0.186,1.276-0.884
					l-0.131-2.483C951.052,232.451,950.818,233.147,950.521,234.02z"/>
			</g>
			<g>
				<path style="fill:#2483A4;" d="M923.775,227.818c-0.77-0.268-0.998,0.317-1.359,0.793c-0.735,0.969-1.61,0.482-2.37,0.062
					c-0.994-0.552-0.466-1.22,0.014-1.811c0.285-0.348,0.675-0.734,0.342-1.151c-0.47-0.583-0.862,0.133-1.272,0.182
					c-0.866,0.11-1.513,0.441-2.089,0.947l-0.577,1.956c0.048,0.017,0.091,0.024,0.142,0.048c0.433,0.202,0.627,0.708,0.353,1.116
					c-0.258,0.381-0.625,0.65-1.032,0.785c-0.004,0.264,0.107,0.502,0.285,0.672c0.469-0.691,1.039-1.204,1.595-1.281
					c0.564-0.081,1.01,0.302,1.491,0.657l3.848-1.479C923.334,228.81,923.574,228.319,923.775,227.818z"/>
			</g>
			<g>
				<path style="fill:#2483A4;" d="M943.693,195.949c-0.3-0.318-0.634-0.604-0.956-0.903c-0.566,1.355-1.901,0.914-2.901,1.244
					c0.838,0.724,0.983,3.059,0.224,3.71c-0.297,0.257-0.655,0.358-1.016,0.206c-0.537-0.219-0.576-0.722-0.303-1.082
					c0.559-0.736,0.595-1.633,0.921-2.427c-2.144-0.199-1.445-1.155-0.57-2.153c-1.378-0.406-0.96-1.288-0.577-2.163
					c-1.033,0.43-0.944,1.548-1.411,2.32c0.888,1.065,1.016,1.922-0.54,2.518c-0.438,0.169-0.838,0.641-1.075,1.074
					c-1.157,2.129-2.296,4.271-3.346,6.453c-0.25,0.518-0.538,1.431,0.401,1.647c0.846,0.188,1.184-0.539,1.164-1.263
					c-0.044-1.531,0.482-1.833,1.771-1.011c0.319,0.204,1.059,0.416,0.957-0.292c-0.184-1.234,0.366-1.02,1.1-0.766
					c0.844,0.288,1.19,0.752,0.827,1.68c-0.392,1.017-1.029,1.638-2.139,1.564c-1-0.064-1.828,0.149-2.797,1.286
					c1.573-0.141,2.745,0.344,3.897-0.301c1.918,0.015,2.773-0.994,2.789-2.854c0.006-0.685,0.224-1.329,0.735-1.808
					c0.326-0.304,0.926-1.006,1.051,0.015c0.207,1.658,2.228-0.24,2.27,1.252c0.035,1.202-1.751,1.116-1.867,2.254
					c-0.093,0.909-0.457,1.678-0.796,2.502c-0.759,1.878-1.725,1.9-3.019,0.568c-0.926,0.208-1.725,0.587-2.078,1.558
					c-0.281,0.689-0.56,1.374-0.84,2.063c-0.826,1.118-0.006,2.599-0.863,4.026c-0.526-1.096-0.585-2.384-1.943-2.374
					c-0.063,0.002-0.118,0.654-0.176,1.003c0.536,0.54,0.599,1.174,0.203,1.795c-0.313,0.496-0.592,0.055-0.862-0.132
					c-0.058,0.136-0.116,0.271-0.176,0.403c-0.291,0.328-0.581,0.661-0.869,0.991c-1.877,2.115-1.145,3.343,1.784,3.885
					c-0.823,0.698-1.495,1.267-2.169,1.836c-0.175,0.316-0.548,0.685-0.477,0.927c0.147,0.519,0.602,0.18,0.905,0.077
					c1.735-0.587,3.917-0.738,3.217-3.583c-0.143-0.579,0.543-0.766,1.086-0.81c0.049-0.053,0.15-0.133,0.14-0.158
					c-1.467-2.829,1.839-4.4,1.827-6.885c-0.003-0.81,0.565-1.662,1.603-0.654c0.361,0.304,0.149,1.193,0.899,1.035
					c0.897-0.185,1.808-0.44,2.614-0.855c0.388-0.199,0.002-0.631-0.332-0.814c-0.473-0.259-1.09-0.923-0.801-1.117
					c1.831-1.236,1.561-3.99,3.69-4.947c1.039-0.539,2.216-0.932,2.078-2.494c-0.041-0.473,0.369-0.805,0.857-0.885
					c0.549-0.086,1.053,0.061,1.338,0.573c0.249,0.445,0.41,0.939,0.612,1.407c0.276,0.111,0.555,0.217,0.832,0.328
					c0.145-0.336,0.343-0.612,0.743-0.661c0.247-0.743,0.591-1.427,1.255-1.893c2.175-0.092,4.058,1.522,6.293,1.085
					c0.194-0.078,0.388-0.158,0.58-0.24c0.159-0.233,0.51-0.572,0.445-0.685c-0.521-0.948-0.432-1.434-0.08-1.719l-4.114-1.1
					c-0.389,0.388-0.673,0.825-0.551,1.484c-0.935-0.131-1.901-0.17-2.803-0.416c-1.117-0.297-1.631-0.926-0.363-1.742
					c0.109-0.07,0.209-0.152,0.304-0.238l-1.198-0.32c-0.484,0.018-0.97-0.199-1.467-0.392l-1.007-0.27
					c-0.339-0.025-0.685,0.039-1.04,0.269c-0.09-0.226-0.271-0.535-0.35-0.752c-0.107-0.099-0.19-0.223-0.24-0.365l-0.632-1.779
					C945.523,196.604,944.739,197.045,943.693,195.949z"/>
			</g>
			<g>
				<path style="fill:#2483A4;" d="M965.356,202.785l-2.754-0.737c-0.188,0.102-0.436,0.213-0.771,0.335
					c-0.815,0.293-0.786,1.187-1.134,1.814c0.198,1.361-0.25,2.466-1.33,3.313c-0.211,0.541-0.047,0.931,0.487,1.16
					c0.069,0.035,0.128,0.046,0.19,0.062l3.365-2.587c0.216-0.292,0.449-0.574,0.747-0.808c-0.143,0.149-0.243,0.309-0.317,0.477
					l1.839-1.415C966.281,203.935,966.091,202.981,965.356,202.785z"/>
			</g>
			<g>
				<path style="fill:#2483A4;" d="M952.354,201.271c0.903,0.246,1.868,0.285,2.803,0.416c-0.123-0.659,0.162-1.096,0.551-1.484
					l-3.413-0.913c-0.095,0.087-0.194,0.168-0.304,0.238C950.723,200.345,951.237,200.974,952.354,201.271z"/>
			</g>
			<g>
				<path style="fill:#2483A4;" d="M937.199,188.49c0.257-0.235,0.552-0.445,0.763-0.712c0.239-0.301,0.465-0.649,0.857-0.318
					c0.389,0.329,0.418,0.79,0.016,1.136c-0.544,0.469-1.146,0.873-1.723,1.303c-0.431,2.428-1.333,4.549-3.681,5.749
					c-0.113,0.058-0.151,0.247-0.226,0.372c0.362,0.629,0.197,1.046-0.497,1.251c-0.187,0.533-0.701,1.21,0.49,1.151
					c0.556-0.574,1.11-1.153,1.664-1.732c0.382-0.658,0.318-1.606,1.247-1.899c0.33-0.03,0.661-0.062,0.993-0.091
					c0.467-0.773,0.377-1.89,1.411-2.32c1.665-2.416,2.491-5.279,3.887-7.84l-0.47-1.323c-0.675,0.79-1.464,1.449-2.723,1.559
					c-0.378,0.028-0.75,0.413-1.157,0.077c-0.718-0.586-0.461-1.466-0.586-2.193l-0.879,1.355c-0.149,0.404-0.343,0.803-0.655,1.01
					l-1.69,2.605C935.307,187.337,936.198,188.296,937.199,188.49z"/>
			</g>
			<g>
				<path style="fill:#2483A4;" d="M938.051,184.853c0.407,0.336,0.78-0.049,1.157-0.077c1.26-0.11,2.048-0.769,2.723-1.559
					l-0.451-1.27c-0.18,0.053-0.362,0.107-0.558,0.165c0.041-0.391,0.12-0.749,0.237-1.068l-0.314-0.883
					c-0.255-0.717-1.221-0.83-1.635-0.192l-1.746,2.692C937.59,183.387,937.333,184.266,938.051,184.853z"/>
			</g>
			<g>
				<path style="fill:#2483A4;" d="M939.091,194.543c0.812-0.257,0.858-0.93,0.875-1.617c0.026-1.07,0.771-2.046,1.468-2.335
					c1.227-0.512,1.901-1.3,2.327-2.223l-1.36-3.828c-1.395,2.561-2.222,5.424-3.887,7.84
					C938.131,193.255,937.714,194.137,939.091,194.543z"/>
			</g>
			<g>
				<path style="fill:#2483A4;" d="M939.967,192.926c-0.018,0.687-0.064,1.36-0.875,1.617c-0.875,0.998-1.574,1.954,0.57,2.153
					c0.059-0.138,0.116-0.271,0.174-0.407c1-0.33,2.335,0.111,2.901-1.244c0.843-0.782,1.171-2.369,2.61-2.216l-1.586-4.462
					c-0.426,0.923-1.1,1.711-2.327,2.223C940.738,190.88,939.993,191.856,939.967,192.926z"/>
			</g>
			<g>
				<path style="fill:#2483A4;" d="M910.403,196.28l-0.283,0.008c-0.76,0.021-1.167,0.904-0.688,1.495l0.641,0.791
					c-0.029-0.145-0.056-0.291-0.057-0.414C910.006,197.507,910.104,196.807,910.403,196.28z"/>
			</g>
			<g>
				<path style="fill:#2483A4;" d="M918.612,201.211c0.166-0.413,0.334-0.83,0.499-1.24c-0.477-0.651-1.155-0.993-1.89-1.251
					l-0.02,0.006c0.143,1.93-0.951,0.947-1.718,0.732l-0.024,0.007c1.422,1.754,0.901,3.426-0.284,5.005
					c-0.051,0.068-0.108,0.133-0.161,0.2l0.953,1.176C916.519,204.145,917.437,202.618,918.612,201.211z"/>
			</g>
			<g>
				<path style="fill:#2483A4;" d="M916.366,197.665c-0.919,0.207-1.285,0.858-0.907,1.801l0.024-0.007
					c0.265-0.968,0.841-1.206,1.718-0.732l0.02-0.006C917.397,197.99,917.136,197.495,916.366,197.665z"/>
			</g>
			<g>
				<path style="fill:#2483A4;" d="M920.01,204.32c-0.005,0.054-0.268,0.065-0.404,0.11c-1.817,0.644-1.949,0.939-1.367,3.132
					c0.408-0.593,0.734-1.173,1.16-1.664c0.258-0.297,0.896-0.793,1.021-0.177c0.231,1.109,1.558,1.957,0.827,3.286
					c0.778-0.337,1.451-0.49,1.108,0.767c-0.129,0.473-0.351,0.923-0.534,1.388c0.927-0.304,0.869-1.249,1.251-1.907
					c0.451-0.803,0.209-1.55-0.133-2.33c-0.694-1.589-0.51-1.918,1.289-2.656c0.574,0.47-1.076,0.983,0.019,1.369
					c0.557,0.196,1.117-0.407,1.046-0.882c-0.146-0.926,1.136-2.358,0.335-2.438c-3.074-0.311-0.659-2.311-1.148-3.371
					c-0.327-0.705,2.062-2.076,2.374-1.47c0.376,0.739,0.712,1.012,1.228,0.287c0.402-0.559,0.796-1.61,0.37-1.975l-2.266,0.062
					c-0.151,0.398-0.445,0.725-1.009,0.634c-0.45-0.073-0.532-0.311-0.494-0.593l-0.174,0.005c-0.643,1.281-1.3,2.558-1.901,3.846
					C921.904,201.254,920.311,202.431,920.01,204.32z"/>
			</g>
			<g>
				<path style="fill:#2483A4;" d="M920.481,216.879c0.291-0.757,0.566-1.503,1.435-1.824c0.469-0.177,0.867-0.369,0.791-1.098
					c-0.232-2.111,0.948-2.082,2.426-1.463c0.24-0.597,0.13-1.122-0.327-1.575c-0.969-0.494-1.8-0.634-2.242,0.687
					c-0.112,0.321-0.435,0.585-0.702,0.826c-0.218,0.198-0.468,0.429-0.725,0.527l-0.565,1.914
					C920.66,215.476,920.132,216.423,920.481,216.879z"/>
			</g>
			<g>
				<path style="fill:#2483A4;" d="M921.241,211.41c-0.61-0.339-1.629-0.321-1.313-1.485c-0.189,0.058-0.346,0.129-0.489,0.206
					l1.252,1.545C920.895,211.597,921.108,211.525,921.241,211.41z"/>
			</g>
			<g>
				<path style="fill:#2483A4;" d="M918.69,222.47c0.327-1.001,0.897-1.601,1.842-1.573c0.392-1.172-2.23-1.454-0.548-2.784
					c-0.125-0.037-0.227-0.095-0.32-0.161l-1.691,5.729C918.296,223.355,918.535,222.944,918.69,222.47z"/>
			</g>
			<g>
				<path style="fill:#2483A4;" d="M920.481,216.879c-0.349-0.456,0.18-1.403,0.091-2.005l-0.908,3.077
					c0.093,0.065,0.195,0.124,0.32,0.161C920.149,217.703,920.314,217.292,920.481,216.879z"/>
			</g>
			<g>
				<path style="fill:#2483A4;" d="M922.355,209.775c0.344-1.257-0.33-1.103-1.108-0.767c-0.437,0.304-0.879,0.613-1.319,0.917
					c-0.316,1.164,0.703,1.146,1.313,1.485c0.196-0.084,0.388-0.165,0.579-0.247C922.004,210.697,922.226,210.248,922.355,209.775z"
					/>
			</g>
			<g>
				<path style="fill:#2483A4;" d="M918.612,201.211c-1.175,1.406-2.093,2.933-2.644,4.636l0.483,0.595
					C917.409,204.812,917.737,202.882,918.612,201.211z"/>
			</g>
			<g>
				<path style="fill:#2483A4;" d="M925.177,196.485c0.565,0.091,0.858-0.236,1.009-0.634l-1.503,0.041
					C924.644,196.174,924.727,196.412,925.177,196.485z"/>
			</g>
			<g>
				<path style="fill:#2483A4;" d="M919.13,225.894c0.41-0.049,0.802-0.765,1.272-0.182c0.333,0.417-0.057,0.803-0.342,1.151
					c-0.48,0.591-1.008,1.26-0.014,1.811c0.76,0.42,1.635,0.907,2.37-0.062c0.361-0.477,0.59-1.062,1.359-0.793
					c0.311,0.419,0.721,0.594,1.243,0.5c0.523-1.558-0.805-3.108-0.019-4.692c0.113-0.228-0.017-1.178-0.586-0.716
					c-1.078,0.869-1.911,0.174-2.582-0.313c-1.227-0.898,0.599-1.376,0.5-2.186c-0.034-0.294-0.015-0.59-0.023-0.887
					c0.27-0.499-0.107-1.563,0.943-1.365c0.713,0.135,0.649,0.852,0.459,1.452c-0.204,0.619-0.582,1.482,0.467,1.466
					c1.117-0.02,1.86-0.744,1.69-2.035c-0.644-0.846-0.739-1.914,0.376-2.077c2.021-0.292,2.096-2.204,3.199-3.221
					c-0.498-0.359-0.995-0.721-1.493-1.08c-0.163,0.449,0.973,1.556-0.79,1.233c-1.037-0.186-1.543-0.656-2.026-1.403
					c-1.478-0.619-2.658-0.648-2.426,1.463c0.076,0.729-0.322,0.921-0.791,1.098c-0.868,0.321-1.144,1.066-1.435,1.824
					c-0.166,0.413-0.331,0.824-0.497,1.234c-1.682,1.33,0.94,1.611,0.548,2.784c-0.945-0.028-1.515,0.572-1.842,1.573
					c-0.156,0.474-0.395,0.885-0.717,1.211l-0.932,3.159C917.616,226.335,918.263,226.004,919.13,225.894z"/>
			</g>
			<g>
				<path style="fill:#2483A4;" d="M929.559,212.524c-0.56-1.729,0.448-3.743,1.837-3.92c0.599-0.073,1.331-0.072,1.492,0.601
					c0.154,0.639-0.601,0.746-1.046,0.934c-1.149,0.485-2.047,1.132-1.965,2.815c1.164,0.41,1.967,0.026,2.611-0.646
					c0.01-0.011,0.02-0.022,0.03-0.033c0.081-0.086,0.159-0.177,0.235-0.271c0.081-0.1,0.16-0.201,0.237-0.307
					c0.012-0.016,0.023-0.033,0.035-0.049c0.101-0.141,0.199-0.285,0.295-0.43c0.905-1.373,1.824-1.898,3.086-0.441
					c0.352-0.971,1.151-1.35,2.078-1.558l-0.009-0.021c-0.892-0.314-1.825-0.606-1.144-1.88l-0.009-0.028
					c-1.151,0.646-2.324,0.16-3.897,0.301c0.969-1.137,1.797-1.35,2.797-1.286c1.11,0.074,1.747-0.547,2.139-1.564
					c0.363-0.928,0.018-1.392-0.827-1.68c-0.734-0.254-1.283-0.468-1.1,0.766c0.102,0.708-0.638,0.496-0.957,0.292
					c-1.289-0.822-1.815-0.52-1.771,1.011c0.02,0.723-0.318,1.451-1.164,1.263c-0.939-0.216-0.651-1.129-0.401-1.647
					c1.051-2.182,2.189-4.325,3.346-6.453c0.237-0.433,0.637-0.904,1.075-1.074c1.556-0.597,1.427-1.453,0.54-2.518
					c-0.332,0.029-0.663,0.061-0.993,0.091c-0.393,0.65-0.326,1.6-1.247,1.899c-0.554,0.579-1.108,1.157-1.664,1.732
					c-0.666,2.171-1.042,4.59-2.674,6.199c-1.782,1.75-1.95,1.885,0.469,2.963c-2.318,0.995-2.355,3.218-3.046,5.082
					c0.498,0.359,0.995,0.721,1.493,1.08c0.097-0.24,0.193-0.48,0.289-0.718C929.659,212.861,929.604,212.693,929.559,212.524z"/>
			</g>
			<g>
				<path style="fill:#2483A4;" d="M931.62,194.276c0.096,0.415,1.181,0.24,1.237-0.276c0.286-2.6,1.87-3.738,4.255-4.101
					c0.578-0.431,1.179-0.835,1.723-1.303c0.402-0.346,0.373-0.807-0.016-1.136c-0.392-0.331-0.619,0.017-0.857,0.318
					c-0.211,0.267-0.506,0.477-0.763,0.712c-1.128-0.016-2.33,0.508-3.354-0.251l-3.314,5.108
					C930.983,193.508,931.475,193.645,931.62,194.276z"/>
			</g>
			<g>
				<path style="fill:#2483A4;" d="M933.206,196.019c-0.497-0.704-1.218-0.957-1.912-0.503c-0.704,0.463-1.079,1.317-0.78,2.128
					c0.389,1.069,0.38,1.915-0.35,2.861c-0.316,0.408-0.404,1.209,0.408,2.23c0.507-1.26,1.007-2.21,1.258-3.221
					c0.205-0.802-0.283-1.82,0.879-2.244C933.403,197.066,933.567,196.648,933.206,196.019z"/>
			</g>
			<g>
				<path style="fill:#2483A4;" d="M925.848,209.875c0.476,0.191,1.07,0.458,1.292-0.257c0.294-0.963-0.459-1.487-1.111-1.943
					c-0.462-0.321-0.821-0.013-1.052,0.51C924.69,209.001,925.047,209.556,925.848,209.875z"/>
			</g>
			<g>
				<path style="fill:#2483A4;" d="M921.862,212.433c0.267-0.242,0.59-0.505,0.702-0.826c0.442-1.322,1.273-1.181,2.242-0.687
					c-0.273-0.877-1.354-0.9-1.734-1.665c-0.382,0.658-0.324,1.604-1.251,1.907c-0.192,0.082-0.384,0.164-0.579,0.247
					c-0.133,0.116-0.346,0.188-0.549,0.266l0.3,0.371c0.19,0.235,0.253,0.548,0.167,0.838l-0.022,0.076
					C921.393,212.862,921.644,212.631,921.862,212.433z"/>
			</g>
			<g>
				<path style="fill:#2483A4;" d="M953.616,210.882c0.665-0.707,0.141-1.363-0.716-1.653c-0.88,0.015-1.251,0.595-1.491,1.327
					c-0.198,1.724-0.066,3.556-0.473,5.239c0.053-0.076,0.113-0.146,0.188-0.204l1.712-1.316
					C952.703,213.067,952.624,211.935,953.616,210.882z"/>
			</g>
			<g>
				<path style="fill:#2483A4;" d="M948.399,221.504c-1.207-0.064-1.292,1.021-1.629,1.79c-0.29,0.661-0.673,1.139-1.442,1.171
					c-0.308,0.577-0.329,1.194-0.254,1.825c1.612,0.389,2.875,1.551,2.291,3.019c-0.437,1.095-0.357,2.012-0.397,3.032
					c0.852,0.247,1.141,0.738,0.86,1.469l0.183,0.126c0.523-0.313,0.617-0.829,0.395-1.437c-0.546-1.501,1.492-2.436,0.847-3.943
					c1.904,0.214,1.166-1.438,1.591-2.262c0.12-0.23,0.232-0.461,0.414-0.617l-0.235-4.446c-0.389,0.762-0.646,1.619-1.486,2.078
					C948.819,222.917,949.531,221.559,948.399,221.504z"/>
			</g>
			<g>
				<path style="fill:#2483A4;" d="M948.128,219.637c1.175,0.435,1.937,0.361,2.672-0.272c0.038-0.033,0.078-0.066,0.12-0.099
					l-0.152-2.886C950.362,217.601,949.606,218.723,948.128,219.637z"/>
			</g>
			<g>
				<path style="fill:#2483A4;" d="M941.76,227.359l-0.003-0.001c-0.962,0.617-1.9,0.555-2.834,0.347l2.843,1.95
					C942.393,229.144,942.513,228.429,941.76,227.359z"/>
			</g>
			<g>
				<path style="fill:#2483A4;" d="M941.757,227.357l0.003,0.001c1.497-1.284,2.258,0.363,3.443,1.137
					c-0.056-0.934-0.093-1.571-0.129-2.204c-1.945-0.893-0.617-1.326,0.254-1.825c0.345-0.473,0.784-0.911,1.012-1.434
					c0.267-0.611,0.95-1.356-0.01-1.932c-0.956-0.578-1.612,0.401-1.684,0.881c-0.276,1.827-1.966,2.483-2.807,3.807
					c-0.239,0.38-0.617,0.332-0.987,0.249c-0.195,0.081-0.388,0.158-0.581,0.242C939.919,227.806,941.303,226.94,941.757,227.357z"
					/>
			</g>
			<g>
				<path style="fill:#2483A4;" d="M946.968,232.342c-0.114,0.235-0.221,0.467-0.289,0.681l1.149,0.788
					C948.109,233.079,947.82,232.589,946.968,232.342z"/>
			</g>
			<g>
				<path style="fill:#2483A4;" d="M917.806,230.135c-0.556,0.077-1.126,0.59-1.595,1.281c0.241,0.229,0.601,0.332,0.961,0.193
					l2.125-0.817C918.817,230.438,918.37,230.055,917.806,230.135z"/>
			</g>
			<g>
				<path style="fill:#2483A4;" d="M925.018,228.318c-0.522,0.094-0.931-0.081-1.243-0.5c-0.201,0.501-0.441,0.992-0.63,1.496
					l1.748-0.672c0.042-0.107,0.085-0.215,0.127-0.323L925.018,228.318z"/>
			</g>
			<g>
				<path style="fill:#2483A4;" d="M916.958,229.96c0.274-0.408,0.081-0.914-0.353-1.116c-0.051-0.024-0.094-0.031-0.142-0.048
					l-0.501,1.697c-0.025,0.085-0.035,0.169-0.036,0.252C916.333,230.61,916.701,230.341,916.958,229.96z"/>
			</g>
			<g>
				<path style="fill:#2483A4;" d="M950.654,213.403c-0.005,0.785-0.486,1.604-1.559,1.438c-1.058-0.17-1.019-0.859-0.683-1.643
					c-0.942,0.188-1.437-0.232-1.237-1.15c0.226-1.042,1.305-1.364,2.021-1.142c0.895,0.274,0.022,1.069-0.029,1.643
					c1.009-0.568,1.294-1.421,0.745-2.402c-0.336-0.598-0.345-1.092-0.078-1.662l-0.002-0.004c-0.665,0.012-1.291,0.513-1.987,0.164
					c-0.469,0.744-0.974,1.467-1.388,2.239c-0.369,0.694-0.851,0.708-1.474,0.443c-0.588-0.247-1.048-0.615-0.938-1.317
					c0.111-0.715,0.69-1.08,1.297-0.836c1.014,0.415,1.641-0.524,2.503-0.53c0.221-0.764,0.784-1.433,0.647-2.535
					c-0.714,0.469-1.311,0.923-1.961,1.277c-0.966,0.53-1.754,0.59-1.662-0.9c-2.13,0.957-1.859,3.711-3.69,4.947
					c-0.289,0.195,0.328,0.858,0.801,1.117c0.334,0.183,0.72,0.615,0.332,0.814c-0.806,0.415-1.717,0.67-2.614,0.855
					c-0.751,0.157-0.538-0.731-0.899-1.035c-1.386,2.054-0.633,4.637-1.687,6.793c-0.333,0.681,0.101,1.346,0.933,1.432
					c0.84,0.086,0.896,0.623,0.901,1.254c0.001,0.76-0.597,0.685-1.088,0.823c-1.047,0.297-1.73,1.062-2.408,1.835l1.13,0.775
					c-0.185-1.173-0.029-1.931,1.946-1.119c1.249,0.51,2.595-0.869,2.131-1.623c-1.641-2.643,0.118-3.649,1.78-4.862
					c-0.362-0.398-0.56-0.857-0.37-1.389c0.164-0.459,0.232-1.04,0.854-1.128c0.399-0.064,0.676,0.192,0.837,0.547
					c0.286,0.647-0.185,0.879-0.609,1.188c-0.28,0.198-0.477,0.516-0.711,0.781c0.57,0.102,1.143,0.198,1.713,0.309
					c0.577,0.111,0.916,0.462,0.941,1.052c0.017,0.456-0.112,1.033-0.546,1.107c-2.25,0.38-2.594,2.017-2.806,3.866
					c-0.048,0.43-0.58,0.806-0.89,1.207c0.37,0.083,0.748,0.132,0.987-0.249c0.84-1.324,2.531-1.98,2.807-3.807
					c0.072-0.479,0.728-1.459,1.684-0.881c0.96,0.576,0.277,1.321,0.01,1.932c-0.228,0.523-0.667,0.961-1.012,1.434
					c0.769-0.033,1.152-0.511,1.442-1.171c0.337-0.769,0.422-1.854,1.629-1.79c1.132,0.055,0.42,1.413,1.139,1.806
					c0.84-0.459,1.097-1.316,1.486-2.078l-0.104-1.966c-0.041,0.033-0.082,0.066-0.12,0.099c-0.735,0.633-1.497,0.707-2.672,0.272
					c1.478-0.914,2.234-2.037,2.64-3.257l-0.001-0.014c-0.011-0.207,0.053-0.406,0.169-0.572c0.407-1.683,0.275-3.515,0.473-5.239
					C950.856,211.425,950.664,212.347,950.654,213.403z"/>
			</g>
			<g>
				<path style="fill:#2483A4;" d="M935.229,220.883c-0.543,0.044-1.229,0.231-1.086,0.81c0.7,2.845-1.482,2.996-3.217,3.583
					c-0.304,0.102-0.758,0.441-0.905-0.077c-0.071-0.243,0.301-0.611,0.477-0.927l-0.003-0.001c-0.667,0.008-1.29,0.51-1.986,0.161
					c-0.204,0.91-0.252,1.795,0.407,2.568c1.163-0.308,2.243-1.667,3.413-1.215l1.923-0.739
					C935.188,223.811,934.435,222.137,935.229,220.883z"/>
			</g>
			<g>
				<path style="fill:#2483A4;" d="M956.375,209.632c0.005-0.116,0.276-0.29,0.248-0.332c-1.766-2.849,1.428-3.602,2.254-5.352
					c-2.235,0.438-4.117-1.177-6.293-1.085c0.535,0.354,1.698,0.286,1.234,1.346c-0.294,0.669-0.77,1.459-1.639,1.61
					c-0.787,0.136-1.033-0.336-0.85-1.064c-0.4,0.05-0.598,0.326-0.743,0.661c0.083,0.814,1.237,0.684,1.321,1.499
					c0.379,1.137,1.805,0.802,2.385,1.706c-0.182,0.839-1.051,0.147-1.391,0.608c0.858,0.29,1.381,0.946,0.716,1.653
					c-0.992,1.054-0.914,2.185-0.781,3.393l1.927-1.482C955.368,211.765,956.321,210.863,956.375,209.632z M954.861,207.137
					c-0.344,0.459-0.793,0.666-1.348,0.38c-0.352-0.18-0.668-0.452-0.3-0.843c0.357-0.381,0.831-0.598,1.382-0.466
					C954.938,206.456,955.145,206.747,954.861,207.137z"/>
			</g>
			<g>
				<path style="fill:#2483A4;" d="M959.367,207.509c0.44-1.103,0.885-2.208,1.328-3.31l0,0c-0.41-0.165-0.825-0.328-1.239-0.491
					c-0.192,0.082-0.386,0.162-0.58,0.24c-0.825,1.751-4.02,2.504-2.254,5.352c0.028,0.042-0.243,0.217-0.248,0.332
					c-0.054,1.23-1.007,2.133-1.612,3.16l3.306-2.542c-0.195-0.188-0.294-0.445-0.202-0.833c0.231-0.988,1.076-0.586,1.745-0.354
					l0.12-0.092c0.04-0.101,0.081-0.201,0.121-0.302C959.321,208.441,959.157,208.05,959.367,207.509z"/>
			</g>
			<g>
				<path style="fill:#2483A4;" d="M937.86,223.488c0.491-0.137,1.089-0.063,1.088-0.823c-0.005-0.631-0.062-1.169-0.901-1.254
					c-0.832-0.086-1.266-0.751-0.933-1.432c1.054-2.156,0.301-4.739,1.687-6.793c-1.038-1.008-1.606-0.156-1.603,0.654
					c0.012,2.485-3.294,4.056-1.827,6.885c0.011,0.025-0.091,0.105-0.14,0.158c-0.794,1.254-0.042,2.929-0.977,4.163l0.058-0.022
					c0.282-0.108,0.599-0.071,0.848,0.1l0.293,0.201C936.13,224.55,936.813,223.785,937.86,223.488z M935.981,219.126
					c0,0-0.001-0.001-0.002-0.001l-0.001,0c-0.395-0.159-0.556-0.507-0.483-0.861c0.102-0.484,0.488-0.706,0.976-0.571
					c0.409,0.109,0.561,0.495,0.488,0.846c-0.012,0.061-0.029,0.117-0.05,0.168C936.763,219.068,936.415,219.204,935.981,219.126z"
					/>
			</g>
			<g>
				<path style="fill:#2483A4;" d="M930.354,217.401c0.119-0.363,0.927-0.021,1.397,0.158c0.06-0.132,0.118-0.267,0.176-0.403
					l-0.014-0.016c-1.411-1.137-2.49,0.059-3.934,0.815c0.206-1.226,0.301-2.252,1.331-2.477c1.024-0.227,2.209-0.289,2.947,0.84
					c0.108-0.278,0.218-0.551,0.328-0.825c-0.407-0.268-1.279-0.238-1.148-0.779c0.104-0.421,0.841-0.777,1.367-0.984
					c0.802-0.32,2.044,0.38,2.346-1.059c-0.658-0.057-1.68,0.381-1.487-0.923c0.109-0.733,0.799-1.351,1.414-1.11
					c1.192,0.476,0.188,1.33,0.078,2.029l0.001-0.001c0.137,0.062,0.274,0.117,0.411,0.172c0.281-0.689,0.56-1.374,0.84-2.063
					c-1.262-1.458-2.181-0.933-3.086,0.441c-0.096,0.146-0.194,0.29-0.295,0.43c-0.012,0.016-0.024,0.033-0.035,0.049
					c-0.077,0.106-0.156,0.208-0.237,0.307c-0.077,0.094-0.155,0.185-0.235,0.271c-0.01,0.011-0.02,0.022-0.03,0.033
					c-0.644,0.672-1.447,1.056-2.611,0.646c0.007,0.145,0.019,0.295,0.041,0.456c-0.071-0.126-0.133-0.253-0.188-0.382
					c-0.096,0.238-0.192,0.478-0.289,0.718c-1.103,1.017-1.178,2.928-3.199,3.221c-1.116,0.163-1.02,1.23-0.376,2.077
					c0.332-0.025,0.662-0.058,0.994-0.084C927.882,218.161,929.737,219.305,930.354,217.401z"/>
			</g>
			<g>
				<path style="fill:#2483A4;" d="M938.477,209.197l0.009,0.021c1.295,1.333,2.26,1.31,3.019-0.568
					c0.338-0.824,0.703-1.592,0.796-2.502c0.116-1.138,1.902-1.052,1.867-2.254c-0.042-1.492-2.063,0.406-2.27-1.252
					c-0.124-1.021-0.725-0.32-1.051-0.015c-0.51,0.479-0.728,1.123-0.735,1.808c-0.016,1.859-0.871,2.869-2.789,2.854l0.009,0.028
					C937.813,207.884,940.032,207.391,938.477,209.197z"/>
			</g>
			<g>
				<path style="fill:#2483A4;" d="M949.754,205.089c-0.202-0.468-0.363-0.962-0.612-1.407c-0.284-0.512-0.788-0.659-1.338-0.573
					c-0.488,0.08-0.898,0.413-0.857,0.885c0.138,1.562-1.039,1.955-2.078,2.494c-0.092,1.49,0.695,1.43,1.662,0.9
					c0.65-0.353,1.247-0.807,1.961-1.277c0.137,1.102-0.425,1.77-0.647,2.535c0.695,0.349,1.322-0.152,1.987-0.164
					C950.666,207.328,949.708,206.224,949.754,205.089z"/>
			</g>
			<g>
				<path style="fill:#2483A4;" d="M930.883,218.55c0.288-0.33,0.577-0.663,0.869-0.991c-0.471-0.179-1.279-0.522-1.397-0.158
					c-0.617,1.904-2.472,0.76-3.494,1.558l0.002,0.004c1.998,0.358,2.039,1.611,1.316,3.075c-0.334,0.684-0.881,1.245,0.083,1.812
					c-0.236-1.673,1.197-1.549,1.96-1.429c1.336,0.216,0.385,1.181,0.275,1.848l0.003,0.001c0.674-0.568,1.346-1.137,2.169-1.836
					C929.738,221.893,929.006,220.665,930.883,218.55z"/>
			</g>
			<g>
				<path style="fill:#2483A4;" d="M942.737,195.046c0.322,0.299,0.656,0.585,0.956,0.903c1.046,1.096,1.83,0.656,2.667-0.267
					l-1.013-2.852C943.908,192.677,943.58,194.264,942.737,195.046z"/>
			</g>
			<g>
				<path style="fill:#2483A4;" d="M959.901,203.023c0.065,0.113-0.285,0.452-0.445,0.685c0.414,0.163,0.829,0.326,1.239,0.491l0,0
					c0-0.001,0.001-0.002,0.001-0.003c0,0,0,0,0,0c0.347-0.626,0.319-1.521,1.134-1.814c0.335-0.122,0.583-0.233,0.771-0.335
					l-2.781-0.744C959.469,201.589,959.38,202.075,959.901,203.023z"/>
			</g>
			<g>
				<path style="fill:#2483A4;" d="M935.156,212.667c0,0.001,0,0.002-0.001,0.002c0.001-0.003-0.004,0.002-0.004,0.002
					c-0.302,1.44-1.544,0.74-2.346,1.059c-0.525,0.207-1.263,0.563-1.367,0.984c-0.131,0.542,0.741,0.512,1.148,0.779
					c0.058-0.35,0.113-1.001,0.176-1.003c1.358-0.01,1.417,1.278,1.943,2.374c0.857-1.427,0.037-2.907,0.863-4.026
					C935.431,212.784,935.294,212.729,935.156,212.667L935.156,212.667z"/>
			</g>
			<g>
				<path style="fill:#2483A4;" d="M938.741,199.124c-0.273,0.36-0.233,0.863,0.303,1.082c0.36,0.152,0.719,0.051,1.016-0.206
					c0.759-0.651,0.614-2.986-0.224-3.71c-0.058,0.136-0.115,0.268-0.174,0.407C939.336,197.491,939.299,198.388,938.741,199.124z"
					/>
			</g>
			<g>
				<path style="fill:#2483A4;" d="M951.328,204.755c-0.183,0.728,0.063,1.2,0.85,1.064c0.869-0.151,1.346-0.941,1.639-1.61
					c0.464-1.06-0.699-0.993-1.234-1.346C951.92,203.328,951.576,204.012,951.328,204.755z"/>
			</g>
			<g>
				<path style="fill:#2483A4;" d="M949.833,208.482l0.002,0.004c0.66-0.052,1.137-0.268,1.136-1.063
					c0-0.677,0.469-0.623,0.937-0.507c-0.084-0.814-1.238-0.684-1.321-1.499c-0.276-0.111-0.555-0.217-0.832-0.328
					C949.708,206.224,950.666,207.328,949.833,208.482z"/>
			</g>
			<g>
				<path style="fill:#2483A4;" d="M931.913,217.14l0.014,0.016c0.27,0.188,0.549,0.628,0.862,0.132
					c0.395-0.621,0.332-1.255-0.203-1.795c-0.11,0.274-0.22,0.547-0.328,0.825C932.596,216.78,932.065,216.884,931.913,217.14z"/>
			</g>
			<g>
				<path style="fill:#2483A4;" d="M959.732,208.971l0.311-0.24c-0.062-0.017-0.121-0.027-0.19-0.062
					C959.813,208.77,959.773,208.87,959.732,208.971z"/>
			</g>
			<g>
				<path style="fill:#2483A4;" d="M963.409,206.144l0.43-0.331c0.074-0.168,0.173-0.328,0.317-0.477
					C963.858,205.569,963.625,205.852,963.409,206.144z"/>
			</g>
			<g>
				<path style="fill:#2483A4;" d="M960.695,204.199c-0.443,1.102-0.888,2.207-1.328,3.31c1.08-0.847,1.528-1.952,1.33-3.313
					c0,0,0,0,0,0C960.696,204.197,960.696,204.198,960.695,204.199z"/>
			</g>
			<g>
				<path style="fill:#2483A4;" d="M936.585,184.015l-0.655,1.01C936.242,184.817,936.437,184.419,936.585,184.015z"/>
			</g>
			<g>
				<path style="fill:#2483A4;" d="M937.199,188.49c-1.001-0.194-1.892-1.153-2.959-0.86l-0.395,0.609
					C934.869,188.998,936.071,188.473,937.199,188.49z"/>
			</g>
			<g>
				<path style="fill:#2483A4;" d="M936.111,194.791c-0.93,0.293-0.865,1.241-1.247,1.899
					C935.785,196.391,935.718,195.441,936.111,194.791z"/>
			</g>
			<g>
				<path style="fill:#2483A4;" d="M941.48,181.947l-0.321-0.903c-0.117,0.319-0.196,0.678-0.237,1.068
					C941.118,182.054,941.3,182,941.48,181.947z"/>
			</g>
			<g>
				<path style="fill:#2483A4;" d="M915.483,199.459c0.767,0.215,1.86,1.197,1.718-0.732
					C916.323,198.253,915.748,198.491,915.483,199.459z"/>
			</g>
			<g>
				<path style="fill:#2483A4;" d="M927.273,224.852c0.095-0.038,0.141-0.427,0.071-0.596c-0.696-1.704-0.897-3.805-0.482-5.292
					l-0.002-0.004c-0.331,0.025-0.662,0.058-0.994,0.084c0.171,1.292-0.572,2.015-1.69,2.035c-1.05,0.016-0.671-0.847-0.467-1.466
					c-0.465-0.028-0.93-0.057-1.401-0.087c0.008,0.297-0.011,0.593,0.023,0.887c0.099,0.81-1.727,1.288-0.5,2.186
					c0.671,0.487,1.504,1.182,2.582,0.313c0.569-0.462,0.698,0.488,0.586,0.716c-0.786,1.584,0.543,3.134,0.019,4.692l0.003,0.001
					c0.565,0.096,0.814-1.342,1.571-0.33l0.001,0C926.253,226.824,925.492,225.579,927.273,224.852z"/>
			</g>
			<g>
				<path style="fill:#2483A4;" d="M923.25,218.16c-1.05-0.198-0.673,0.866-0.943,1.365c0.471,0.031,0.936,0.059,1.401,0.087
					C923.899,219.011,923.963,218.294,923.25,218.16z"/>
			</g>
			<g>
				<path style="fill:#2483A4;" d="M931.842,210.138c0.445-0.187,1.2-0.295,1.046-0.934c-0.161-0.673-0.893-0.674-1.492-0.601
					c-1.347,0.172-2.335,2.073-1.837,3.92c0.045,0.169,0.1,0.337,0.171,0.503c0.055,0.129,0.117,0.256,0.188,0.382
					c-0.022-0.161-0.034-0.311-0.041-0.456C929.796,211.27,930.693,210.623,931.842,210.138z"/>
			</g>
			<g>
				<path style="fill:#2483A4;" d="M937.333,207.318c-0.681,1.273,0.251,1.566,1.144,1.88
					C940.032,207.391,937.813,207.884,937.333,207.318z"/>
			</g>
			<g>
				<path style="fill:#2483A4;" d="M950.97,207.423c0.001,0.795-0.476,1.011-1.136,1.063c-0.267,0.57-0.258,1.064,0.078,1.662
					c0.549,0.981,0.264,1.834-0.745,2.402c-0.249,0.214-0.503,0.433-0.755,0.649c-0.336,0.784-0.375,1.473,0.683,1.643
					c1.073,0.166,1.554-0.653,1.559-1.438c0.011-1.056,0.202-1.978,0.755-2.847c0.24-0.732,0.611-1.312,1.491-1.327
					c0.341-0.46,1.21,0.231,1.391-0.608c-0.58-0.903-2.006-0.569-2.385-1.706C951.439,206.799,950.97,206.746,950.97,207.423z"/>
			</g>
			<g>
				<path style="fill:#2483A4;" d="M945.074,226.291c-0.074-0.631-0.054-1.248,0.254-1.825
					C944.457,224.965,943.13,225.398,945.074,226.291z"/>
			</g>
			<g>
				<path style="fill:#2483A4;" d="M928.917,226.999c-0.015,0.038-0.031,0.076-0.046,0.114l3.458-1.329
					C931.159,225.332,930.08,226.691,928.917,226.999z"/>
			</g>
			<g>
				<path style="fill:#2483A4;" d="M925.021,228.32c-0.042,0.108-0.085,0.215-0.127,0.323l1.698-0.653
					C925.834,226.978,925.586,228.416,925.021,228.32z"/>
			</g>
			<g>
				<path style="fill:#2483A4;" d="M941.757,227.357c-0.454-0.418-1.838,0.448-1.487-1.079c-0.891,0.079-1.741,0.468-2.632,0.544
					l1.285,0.881C939.857,227.912,940.796,227.975,941.757,227.357z"/>
			</g>
			<g>
				<path style="fill:#2483A4;" d="M940.852,226.036c0.31-0.401,0.841-0.777,0.89-1.207c0.212-1.849,0.557-3.486,2.806-3.866
					c0.434-0.074,0.563-0.651,0.546-1.107c-0.025-0.591-0.364-0.941-0.941-1.052c-0.57-0.112-1.143-0.208-1.713-0.309
					c-1.663,1.214-3.422,2.219-1.78,4.862c0.464,0.753-0.882,2.133-2.131,1.623c-1.975-0.812-2.13-0.054-1.946,1.119l1.057,0.725
					c0.891-0.077,1.741-0.465,2.632-0.544C940.464,226.195,940.657,226.117,940.852,226.036z"/>
			</g>
			<g>
				<path style="fill:#2483A4;" d="M928.51,224.431c-0.085-0.193-0.168-0.389-0.25-0.581c-0.964-0.567-0.417-1.128-0.083-1.812
					c0.724-1.464,0.682-2.717-1.316-3.075c-0.415,1.488-0.214,3.589,0.482,5.292c0.07,0.169,0.024,0.559-0.071,0.596
					c-1.78,0.727-1.02,1.972-0.68,3.137l2.279-0.876c0.015-0.038,0.031-0.076,0.046-0.114
					C928.257,226.226,928.306,225.341,928.51,224.431z"/>
			</g>
			<g>
				<path style="fill:#2483A4;" d="M945.342,209.176c-0.606-0.244-1.185,0.121-1.297,0.836c-0.11,0.702,0.35,1.07,0.938,1.317
					c0.622,0.264,1.105,0.251,1.474-0.443c0.414-0.773,0.919-1.496,1.388-2.239C946.983,208.651,946.357,209.591,945.342,209.176z"
					/>
			</g>
			<g>
				<path style="fill:#2483A4;" d="M930.22,222.421c-0.763-0.121-2.196-0.245-1.96,1.429c0.081,0.192,0.165,0.388,0.25,0.581
					c0.695,0.349,1.319-0.153,1.986-0.161C930.605,223.602,931.556,222.638,930.22,222.421z"/>
			</g>
			<g>
				<path style="fill:#2483A4;" d="M949.196,210.906c-0.716-0.222-1.795,0.1-2.021,1.142c-0.2,0.918,0.294,1.338,1.237,1.15
					c0.253-0.216,0.507-0.435,0.755-0.649C949.218,211.975,950.091,211.18,949.196,210.906z"/>
			</g>
			<g>
				<path style="fill:#2483A4;" d="M943.76,216.526c-0.161-0.355-0.438-0.612-0.837-0.547c-0.623,0.088-0.691,0.669-0.854,1.128
					c-0.19,0.532,0.008,0.991,0.37,1.389c0.234-0.265,0.431-0.583,0.711-0.781C943.575,217.405,944.045,217.172,943.76,216.526z"/>
			</g>
			<g>
				<path style="fill:#2483A4;" d="M954.595,206.208c-0.551-0.132-1.025,0.085-1.382,0.466c-0.368,0.391-0.053,0.663,0.3,0.843
					c0.555,0.286,1.004,0.079,1.348-0.38C955.145,206.747,954.938,206.456,954.595,206.208z"/>
			</g>
			<g>
				<path style="fill:#2483A4;" d="M957.867,209.417c-0.092,0.388,0.007,0.645,0.202,0.833l1.544-1.187
					C958.943,208.831,958.098,208.429,957.867,209.417z"/>
			</g>
			<g>
				<path style="fill:#2483A4;" d="M936.471,217.693c-0.489-0.134-0.875,0.087-0.976,0.571c-0.073,0.354,0.087,0.702,0.483,0.861
					l0.001,0c0.436,0.079,0.784-0.058,0.931-0.418c0.021-0.052,0.038-0.108,0.05-0.168
					C937.032,218.188,936.88,217.802,936.471,217.693z"/>
			</g>
			<g>
				<path style="fill:#2483A4;" d="M932.257,216.319c-0.737-1.129-1.923-1.068-2.947-0.84c-1.03,0.225-1.125,1.251-1.331,2.477
					c1.444-0.756,2.523-1.952,3.934-0.815C932.065,216.884,932.596,216.78,932.257,216.319z"/>
			</g>
			<g>
				<path style="fill:#2483A4;" d="M935.156,212.667c0.11-0.698,1.114-1.553-0.078-2.029c-0.615-0.241-1.305,0.376-1.414,1.11
					c-0.193,1.304,0.829,0.866,1.487,0.923c0,0,0.006-0.005,0.004-0.002C935.156,212.669,935.156,212.668,935.156,212.667z"/>
			</g>
		</g>
		<g>
			<g>
				<path style="fill:#2483A4;" d="M556.859,209.578l2.062-29.164c0.034-0.48-0.17-0.946-0.546-1.245l-22.856-18.233
					c-0.947-0.755-0.617-2.269,0.559-2.561l28.374-7.051c0.467-0.116,0.847-0.454,1.016-0.905l10.277-27.371
					c0.426-1.134,1.967-1.287,2.608-0.26l15.474,24.807c0.255,0.408,0.694,0.665,1.174,0.686l29.207,1.316
					c1.21,0.055,1.832,1.473,1.053,2.4l-18.811,22.382c-0.31,0.368-0.418,0.865-0.29,1.329l7.774,28.185
					c0.322,1.168-0.835,2.198-1.957,1.743l-27.099-10.974c-0.446-0.18-0.952-0.13-1.354,0.135l-24.403,16.103
					C558.111,211.568,556.774,210.786,556.859,209.578z"/>
			</g>
		</g>
		<g>
			<g>
				<path style="fill:#EEB13D;" d="M407.39,237.312l-7.968-18.635c-0.131-0.307-0.405-0.529-0.732-0.595l-19.869-4.001
					c-0.823-0.166-1.099-1.203-0.467-1.756l15.261-13.337c0.251-0.219,0.378-0.548,0.34-0.88l-2.335-20.133
					c-0.097-0.834,0.805-1.417,1.526-0.986l17.4,10.393c0.286,0.171,0.638,0.19,0.941,0.051l18.426-8.442
					c0.763-0.35,1.596,0.328,1.41,1.146l-4.507,19.76c-0.074,0.325,0.016,0.666,0.242,0.911l13.723,14.915
					c0.569,0.618,0.182,1.62-0.655,1.695l-20.186,1.82c-0.332,0.03-0.628,0.221-0.792,0.512l-9.945,17.66
					C408.792,238.143,407.72,238.084,407.39,237.312z"/>
			</g>
		</g>
		<g>
			<g>
				<path style="fill:#93C2C9;" d="M203.184,321.636l-1.001-18.397c-0.016-0.303-0.181-0.578-0.439-0.736l-15.723-9.605
					c-0.651-0.398-0.564-1.37,0.148-1.645l17.188-6.638c0.283-0.109,0.494-0.35,0.564-0.645l4.276-17.922
					c0.177-0.742,1.129-0.96,1.61-0.367l11.624,14.295c0.191,0.235,0.486,0.361,0.788,0.337l18.366-1.471
					c0.761-0.061,1.261,0.777,0.847,1.418l-10.004,15.473c-0.165,0.254-0.193,0.574-0.077,0.854l7.075,17.012
					c0.293,0.705-0.349,1.44-1.087,1.244l-17.807-4.733c-0.293-0.078-0.605-0.007-0.836,0.191l-13.993,11.986
					C204.123,322.782,203.226,322.398,203.184,321.636z"/>
			</g>
		</g>
		<g>
			<g>
				<path style="fill:#2483A4;" d="M71.624,305.354l-15.621-22.568c-0.257-0.371-0.68-0.592-1.132-0.591l-27.447,0.073
					c-1.137,0.003-1.784-1.299-1.095-2.204l16.637-21.83c0.274-0.359,0.353-0.83,0.212-1.259l-8.551-26.081
					c-0.354-1.081,0.684-2.098,1.757-1.722l25.903,9.077c0.426,0.149,0.899,0.079,1.263-0.187l22.162-16.192
					c0.918-0.671,2.207,0.002,2.181,1.139l-0.628,27.44c-0.01,0.452,0.202,0.879,0.568,1.144l22.248,16.073
					c0.922,0.666,0.68,2.1-0.41,2.426l-26.291,7.882c-0.433,0.13-0.774,0.464-0.912,0.894l-8.412,26.126
					C73.71,306.076,72.271,306.289,71.624,305.354z"/>
			</g>
		</g>
		<g>
			<g>
				<path style="fill:#93C2C9;" d="M895.26,347.482l0.775-11.806c0.013-0.194-0.071-0.382-0.224-0.503l-9.286-7.331
					c-0.385-0.304-0.254-0.917,0.221-1.037l11.467-2.911c0.189-0.048,0.342-0.186,0.409-0.368l4.102-11.097
					c0.17-0.46,0.793-0.525,1.055-0.11l6.313,10.006c0.104,0.165,0.282,0.268,0.477,0.275l11.822,0.473
					c0.49,0.02,0.744,0.592,0.431,0.969l-7.566,9.096c-0.124,0.15-0.167,0.351-0.115,0.538l3.204,11.389
					c0.133,0.472-0.333,0.891-0.788,0.709l-10.989-4.385c-0.181-0.072-0.385-0.051-0.547,0.057l-9.842,6.566
					C895.77,348.285,895.228,347.971,895.26,347.482z"/>
			</g>
		</g>
		<g>
			<g>
				<path style="fill:#2483A4;" d="M707.604,152.338l-2.531-8.476c-0.042-0.139-0.149-0.249-0.288-0.294l-8.417-2.721
					c-0.349-0.113-0.417-0.576-0.115-0.785l7.28-5.026c0.12-0.083,0.191-0.219,0.191-0.365l-0.014-8.846
					c0-0.366,0.419-0.575,0.711-0.352l7.029,5.37c0.116,0.088,0.267,0.114,0.406,0.069l8.409-2.746
					c0.348-0.114,0.676,0.221,0.554,0.567l-2.935,8.345c-0.048,0.137-0.026,0.29,0.06,0.407l5.211,7.149
					c0.216,0.296-0.002,0.711-0.368,0.702l-8.843-0.213c-0.146-0.004-0.283,0.065-0.369,0.183l-5.189,7.165
					C708.171,152.767,707.709,152.689,707.604,152.338z"/>
			</g>
		</g>
		<g>
			<g>
				<path style="fill:#2483A4;" d="M264.101,212.386c-0.335,0-0.673-0.058-1.001-0.177c-1.052-0.381-1.781-1.309-1.905-2.42
					l-3.146-28.175l-24.95-13.316c-0.986-0.528-1.576-1.551-1.539-2.669c0.037-1.118,0.693-2.099,1.713-2.56l25.822-11.699
					l4.955-27.845c0.197-1.101,0.987-1.978,2.062-2.288c1.079-0.31,2.212,0.011,2.965,0.837l19.107,20.945l28.013-3.893
					c1.109-0.152,2.186,0.329,2.813,1.255c0.627,0.926,0.673,2.105,0.12,3.077l-14.015,24.643l12.357,25.44
					c0.487,1.006,0.364,2.18-0.323,3.061c-0.687,0.884-1.794,1.29-2.89,1.067l-0.001-0.001l-27.768-5.714l-20.374,19.614
					C265.559,212.104,264.838,212.386,264.101,212.386z M234.662,165.732l24.845,13.302c0.847,0.452,1.416,1.293,1.522,2.247
					l3.128,28.009l20.328-19.52c0.693-0.666,1.668-0.946,2.61-0.752l27.659,5.691l-12.339-25.378
					c-0.419-0.865-0.385-1.88,0.09-2.714l13.932-24.496l-27.92,3.843c-0.954,0.125-1.905-0.214-2.552-0.924l-18.993-20.82
					L262,151.96c-0.171,0.947-0.795,1.747-1.668,2.142L234.662,165.732z M314.862,194.732l-0.303,1.469L314.862,194.732
					L314.862,194.732L314.862,194.732z"/>
			</g>
		</g>
		<g>
			<g>
				<path style="fill:#2483A4;" d="M1035.343,394.821c-0.136,0-0.272-0.012-0.409-0.034c-0.91-0.154-1.64-0.8-1.904-1.684
					l-0.001-0.002l-5.105-17.104l-16.984-5.489c-0.879-0.284-1.508-1.028-1.642-1.941c-0.135-0.913,0.254-1.807,1.014-2.332
					l14.69-10.142l-0.027-17.85c-0.001-0.923,0.512-1.751,1.339-2.161c0.828-0.409,1.797-0.316,2.53,0.244l14.185,10.836
					l16.968-5.542c0.88-0.287,1.823-0.055,2.47,0.606c0.646,0.66,0.855,1.611,0.549,2.482l-5.922,16.838l10.514,14.424
					c0.544,0.748,0.615,1.721,0.186,2.538c-0.429,0.816-1.301,1.272-2.19,1.288l-17.844-0.43l-10.47,14.457
					C1036.826,394.46,1036.106,394.821,1035.343,394.821z M1035.902,392.241L1035.902,392.241
					C1035.902,392.242,1035.902,392.242,1035.902,392.241z M1013.002,368.022l16.14,5.217c0.756,0.244,1.341,0.844,1.566,1.605
					l4.852,16.25l9.949-13.737c0.468-0.642,1.22-0.983,2.006-0.995l16.959,0.408l-9.99-13.706c-0.468-0.639-0.591-1.469-0.325-2.219
					l5.626-15.999l-16.122,5.266c-0.755,0.247-1.58,0.105-2.211-0.376l-13.477-10.296l0.025,16.962c0,0.792-0.388,1.532-1.037,1.982
					L1013.002,368.022z M1056.905,361.293l0.002,0.002C1056.906,361.295,1056.906,361.294,1056.905,361.293z"/>
			</g>
		</g>
		<g>
			<g>
				<path style="fill:#EEB13D;" d="M83.644,391.879l-4.777-11.172c-0.079-0.184-0.243-0.317-0.438-0.357l-11.911-2.398
					c-0.493-0.099-0.659-0.721-0.28-1.053l9.149-7.996c0.151-0.132,0.227-0.329,0.204-0.527l-1.4-12.07
					c-0.058-0.5,0.482-0.849,0.915-0.591l10.432,6.23c0.172,0.103,0.383,0.114,0.564,0.031l11.046-5.061
					c0.458-0.21,0.957,0.197,0.845,0.687l-2.702,11.846c-0.044,0.195,0.01,0.399,0.145,0.546l8.227,8.942
					c0.341,0.37,0.109,0.971-0.393,1.016l-12.101,1.091c-0.199,0.018-0.377,0.133-0.475,0.307l-5.962,10.587
					C84.484,392.377,83.842,392.342,83.644,391.879z"/>
			</g>
		</g>
		<g>
			<g>
				<path style="fill:#2483A4;" d="M372.946,90.893l0.391-5.965c0.007-0.098-0.036-0.193-0.113-0.254l-4.692-3.704
					c-0.194-0.154-0.128-0.463,0.112-0.524l5.794-1.471c0.095-0.024,0.173-0.094,0.207-0.186l2.073-5.607
					c0.086-0.232,0.401-0.265,0.533-0.056l3.189,5.055c0.052,0.083,0.142,0.135,0.241,0.139l5.973,0.239
					c0.247,0.01,0.376,0.299,0.218,0.49l-3.822,4.595c-0.063,0.076-0.085,0.177-0.058,0.272l1.619,5.754
					c0.067,0.238-0.168,0.45-0.398,0.358l-5.552-2.215c-0.091-0.036-0.195-0.026-0.276,0.029l-4.972,3.317
					C373.203,91.298,372.929,91.14,372.946,90.893z"/>
			</g>
		</g>
		<g>
			<g>
				<path style="fill:#2483A4;" d="M1125.088,406.213l-2.528-5.912c-0.042-0.097-0.128-0.168-0.232-0.189l-6.304-1.269
					c-0.261-0.053-0.349-0.382-0.148-0.557l4.842-4.231c0.08-0.07,0.12-0.174,0.108-0.279l-0.741-6.387
					c-0.031-0.265,0.255-0.45,0.484-0.313l5.52,3.297c0.091,0.054,0.203,0.06,0.299,0.016l5.846-2.678
					c0.242-0.111,0.506,0.104,0.447,0.364l-1.43,6.269c-0.023,0.103,0.005,0.211,0.077,0.289l4.354,4.732
					c0.18,0.196,0.058,0.514-0.208,0.538l-6.404,0.577c-0.105,0.009-0.199,0.07-0.251,0.162l-3.155,5.603
					C1125.533,406.476,1125.193,406.458,1125.088,406.213z"/>
			</g>
		</g>
		<g>
			<g>
				<path style="fill:#2483A4;" d="M1097.496,283.48l11.747-26.773c0.193-0.44,0.157-0.948-0.096-1.357l-15.395-24.855
					c-0.638-1.03,0.182-2.344,1.387-2.224l29.093,2.899c0.479,0.048,0.95-0.143,1.261-0.51l18.881-22.322
					c0.782-0.925,2.285-0.551,2.544,0.632l6.233,28.565c0.103,0.47,0.43,0.859,0.875,1.041l27.065,11.059
					c1.121,0.458,1.23,2.003,0.185,2.615l-25.241,14.755c-0.415,0.243-0.684,0.674-0.72,1.154l-2.155,29.158
					c-0.089,1.208-1.525,1.789-2.429,0.984l-21.833-19.446c-0.359-0.32-0.853-0.443-1.32-0.328l-28.396,6.961
					C1098.006,285.775,1097.01,284.589,1097.496,283.48z"/>
			</g>
		</g>
		<g>
			<g>
				<path style="fill:#2483A4;" d="M833.389,112.545c-0.729,0-1.444-0.271-2.006-0.785L809.61,91.784l-28.777,6.617
					c-1.114,0.256-2.253-0.136-2.974-1.02c-0.722-0.885-0.875-2.079-0.4-3.118l12.268-26.88l-15.186-25.323
					c-0.586-0.98-0.566-2.185,0.053-3.145c0.618-0.96,1.707-1.477,2.84-1.344l29.356,3.362l19.392-22.269
					c0.75-0.861,1.903-1.212,3.004-0.923c1.104,0.292,1.931,1.168,2.157,2.287l5.874,28.958l27.171,11.562
					c1.05,0.446,1.742,1.432,1.806,2.571c0.064,1.14-0.513,2.197-1.507,2.759l-25.726,14.534l-2.6,29.415
					c-0.102,1.137-0.825,2.1-1.89,2.512C834.118,112.479,833.751,112.545,833.389,112.545z M809.627,88.79
					c0.736,0,1.456,0.274,2.012,0.783l21.772,19.976l2.572-29.417c0.087-0.977,0.648-1.848,1.502-2.33l25.725-14.533l-27.183-11.537
					c-0.901-0.384-1.556-1.187-1.75-2.147l-5.874-28.958l-19.372,22.287c-0.645,0.74-1.609,1.116-2.585,1.002l-29.354-3.362
					l15.211,25.311c0.503,0.841,0.561,1.875,0.153,2.767l-12.271,26.887l28.773-6.65C809.181,88.815,809.404,88.79,809.627,88.79z"
					/>
			</g>
		</g>
		<g>
			<g>
				<path style="fill:#2483A4;" d="M138.128,468.324c-0.379,0-0.759-0.103-1.099-0.311c-0.688-0.421-1.072-1.183-1-1.986v-0.002
					l1.058-11.623l-8.976-7.46c-0.62-0.515-0.891-1.323-0.703-2.109c0.188-0.786,0.795-1.387,1.583-1.565l11.38-2.586l4.321-10.842
					c0.297-0.749,0.983-1.256,1.789-1.32c0.814-0.067,1.564,0.328,1.978,1.022l5.977,10.023l11.646,0.76
					c0.807,0.054,1.499,0.55,1.809,1.295c0.31,0.746,0.172,1.587-0.359,2.195l-7.688,8.781l2.877,11.312
					c0.199,0.783-0.059,1.596-0.673,2.121c-0.613,0.525-1.457,0.654-2.2,0.334l-10.728-4.596l-9.867,6.232
					C138.907,468.215,138.518,468.324,138.128,468.324z M131.421,445.791l7.944,6.604c0.531,0.44,0.813,1.117,0.752,1.808
					l-0.937,10.292l8.735-5.517c0.587-0.371,1.317-0.428,1.958-0.153l9.493,4.067l-2.547-10.011
					c-0.172-0.672-0.001-1.386,0.457-1.909l6.804-7.773l-10.309-0.672c-0.689-0.044-1.315-0.425-1.671-1.02l-5.292-8.877
					l-3.825,9.597c-0.259,0.645-0.816,1.122-1.491,1.275L131.421,445.791z M148.689,461.581c0.001,0,0.002,0.001,0.003,0.001
					L148.689,461.581z M137.447,454.701c0.001,0.001,0.001,0.001,0.002,0.001L137.447,454.701z M159.727,452.139l0.001,0.003
					C159.727,452.141,159.727,452.14,159.727,452.139z M130.027,444.633l0.002,0.002
					C130.028,444.634,130.028,444.634,130.027,444.633z M140.83,440.576c-0.001,0-0.002,0-0.002,0.001L140.83,440.576z
					 M153.965,439.533h0.003C153.967,439.533,153.966,439.533,153.965,439.533z M147.48,430.947l-0.001,0.003
					C147.48,430.949,147.48,430.948,147.48,430.947z"/>
			</g>
		</g>
		<g>
			
				<ellipse transform="matrix(0.7071 -0.7071 0.7071 0.7071 -187.0622 294.1689)" style="fill:#EEB13D;" cx="261.562" cy="372.888" rx="7.658" ry="7.658"/>
		</g>
		<g>
			<path style="fill:#2483A4;" d="M70.065,580.866c0.837-2.396,3.457-3.66,5.853-2.824c2.396,0.836,3.66,3.457,2.824,5.853
				c-0.837,2.396-3.457,3.66-5.853,2.824C70.493,585.883,69.229,583.262,70.065,580.866z"/>
		</g>
		<g>
			
				<ellipse transform="matrix(0.1602 -0.9871 0.9871 0.1602 351.4424 1367.2853)" style="fill:#EEB13D;" cx="979.247" cy="477.107" rx="7.658" ry="7.659"/>
		</g>
		<g>
			<g>
				<path style="fill:#EEB13D;" d="M569.795,72.693l-5.549-11.631c-0.091-0.191-0.271-0.326-0.48-0.359l-12.727-2.023
					c-0.527-0.084-0.73-0.736-0.342-1.103l9.347-8.871c0.154-0.146,0.226-0.358,0.193-0.568l-2.009-12.729
					c-0.083-0.527,0.474-0.921,0.944-0.667l11.326,6.148c0.186,0.101,0.411,0.104,0.599,0.008l11.485-5.844
					c0.476-0.242,1.023,0.167,0.926,0.691l-2.348,12.671c-0.039,0.208,0.028,0.423,0.178,0.573l9.107,9.117
					c0.377,0.378,0.158,1.024-0.372,1.094l-12.776,1.683c-0.21,0.028-0.393,0.157-0.49,0.346l-5.857,11.479
					C570.707,73.184,570.025,73.175,569.795,72.693z"/>
			</g>
		</g>
		<g>
			<g>
				<path style="fill:#EEB13D;" d="M797.937,265.394l-16.036-3.3c-0.264-0.054-0.538,0.025-0.732,0.211l-11.81,11.34
					c-0.489,0.47-1.305,0.175-1.38-0.499l-1.817-16.271c-0.03-0.268-0.19-0.504-0.427-0.631l-14.434-7.727
					c-0.598-0.32-0.569-1.187,0.048-1.467l14.913-6.756c0.245-0.111,0.42-0.336,0.468-0.601l2.889-16.116
					c0.12-0.668,0.953-0.908,1.41-0.407l11.034,12.096c0.182,0.199,0.449,0.296,0.716,0.259l16.22-2.232
					c0.672-0.092,1.158,0.626,0.823,1.215l-8.094,14.232c-0.133,0.234-0.143,0.519-0.025,0.761l7.135,14.736
					C799.134,264.846,798.601,265.53,797.937,265.394z"/>
			</g>
		</g>
		<g>
			<g>
				<path style="fill:#93C2C9;" d="M219.243,74.654L233.787,58c0.239-0.274,0.328-0.648,0.238-1.001l-5.474-21.422
					c-0.227-0.888,0.663-1.65,1.505-1.29l20.333,8.686c0.335,0.143,0.718,0.112,1.025-0.083l18.682-11.826
					c0.774-0.49,1.774,0.12,1.692,1.033l-1.977,22.022c-0.033,0.362,0.115,0.717,0.395,0.95l17.02,14.113
					c0.705,0.585,0.434,1.724-0.459,1.928l-21.555,4.925c-0.355,0.081-0.647,0.331-0.781,0.669l-8.163,20.548
					c-0.338,0.851-1.506,0.945-1.976,0.159l-11.344-18.978c-0.187-0.312-0.515-0.513-0.878-0.536l-22.065-1.414
					C219.09,76.425,218.64,75.343,219.243,74.654z"/>
			</g>
		</g>
		<g>
			<g>
				<path style="fill:#EEB13D;" d="M1133.677,496.471l-10.474-7.507c-0.172-0.124-0.394-0.154-0.594-0.082l-12.122,4.372
					c-0.502,0.181-0.994-0.292-0.832-0.801l3.903-12.282c0.064-0.202,0.025-0.423-0.105-0.59l-7.905-10.178
					c-0.328-0.422-0.029-1.036,0.505-1.039l12.886-0.083c0.212-0.001,0.41-0.107,0.529-0.282l7.237-10.663
					c0.3-0.442,0.976-0.348,1.144,0.159l4.061,12.23c0.067,0.201,0.228,0.357,0.432,0.416l12.377,3.588
					c0.513,0.149,0.633,0.821,0.203,1.137l-10.377,7.642c-0.171,0.126-0.269,0.327-0.262,0.539l0.413,12.88
					C1134.713,496.461,1134.111,496.782,1133.677,496.471z"/>
			</g>
		</g>
		<g>
			<path style="fill:#96C5D6;" d="M218.873,344.621c0.743,0.023-0.57,133.055-0.57,133.055c-0.033,2.27-0.661,4.091-1.404,4.068
				c-0.743-0.023-1.318-1.882-1.286-4.152C215.614,477.591,218.13,344.597,218.873,344.621z"/>
		</g>
		<g>
			<path style="fill:#96C5D6;" d="M438.329,21.697C438.901,21.704,440.03,124,440.03,124c0.011,1.746-0.443,3.155-1.014,3.149
				c-0.571-0.006-1.044-1.426-1.055-3.172C437.961,123.977,437.758,21.691,438.329,21.697z"/>
		</g>
		<g>
			<path style="fill:#96C5D6;" d="M531.945,220.05c0.953,0.017,1.411,156.101,1.411,156.101c-0.005,2.664-0.782,4.808-1.734,4.791
				c-0.953-0.017-1.72-2.19-1.715-4.854C529.907,376.088,530.993,220.033,531.945,220.05z"/>
		</g>
		<g>
			<path style="fill:#96C5D6;" d="M985.971,253.352c0.931-0.011,5.324,130.353,5.324,130.353c0.062,2.225-0.642,4.038-1.573,4.049
				c-0.931,0.011-1.736-1.783-1.797-4.008C987.925,383.747,985.04,253.363,985.971,253.352z"/>
		</g>
		<g>
			<path style="fill:#96C5D6;" d="M859.557,122.817c0.408,0.008,0.651,73.13,0.651,73.13c-0.002,1.248-0.334,2.253-0.742,2.245
				c-0.408-0.008-0.738-1.025-0.737-2.273C858.73,195.919,859.149,122.81,859.557,122.817z"/>
		</g>
		<g>
			<path style="fill:#96C5D6;" d="M85.066,432.662c0.592,0.018-0.455,106.085-0.455,106.085c-0.026,1.81-0.527,3.262-1.119,3.243
				c-0.592-0.018-1.051-1.5-1.025-3.31C82.467,538.68,84.474,432.643,85.066,432.662z"/>
		</g>
		<g>
			<path style="fill:#96C5D6;" d="M744.068,324.307c0.475,0.009,0.757,85.031,0.757,85.031c-0.002,1.451-0.388,2.62-0.863,2.611
				c-0.475-0.009-0.858-1.192-0.856-2.643C743.106,409.306,743.593,324.298,744.068,324.307z"/>
		</g>
		<g>
			<path style="fill:#96C5D6;" d="M1168.185,525.234c0.408,0.008,0.651,73.129,0.651,73.129c-0.002,1.248-0.334,2.253-0.742,2.245
				c-0.408-0.008-0.738-1.025-0.737-2.273C1167.357,598.336,1167.776,525.226,1168.185,525.234z"/>
		</g>
		<g>
			<g>
				<path style="fill:#2483A4;" d="M677.354,307.62c-0.122,0-0.246-0.011-0.37-0.032c-0.815-0.14-1.468-0.718-1.703-1.511
					l-0.001-0.001l-3.609-12.166l-12.07-3.924c-0.786-0.256-1.349-0.924-1.467-1.743c-0.118-0.818,0.232-1.617,0.913-2.085
					l10.454-7.193l0.002-12.69c0-0.827,0.461-1.568,1.202-1.935c0.743-0.364,1.609-0.279,2.267,0.223l10.07,7.721l12.072-3.92
					c0.78-0.255,1.632-0.046,2.21,0.546c0.577,0.591,0.765,1.442,0.49,2.222l-4.232,11.968l7.458,10.268
					c0.486,0.669,0.549,1.54,0.164,2.272c-0.386,0.733-1.19,1.186-1.966,1.15l-12.685-0.325l-7.461,10.267
					C678.68,307.298,678.036,307.62,677.354,307.62z M662.153,287.661l10.865,3.532c0.673,0.217,1.198,0.755,1.4,1.437l3.251,10.955
					l6.717-9.243c0.417-0.575,1.074-0.932,1.803-0.888l11.419,0.293l-6.715-9.244c-0.418-0.576-0.525-1.319-0.287-1.989l3.808-10.77
					l-10.867,3.529c-0.667,0.221-1.408,0.095-1.974-0.336l-9.071-6.954l-0.002,11.425c0,0.711-0.35,1.375-0.935,1.777
					L662.153,287.661z M672.091,294.047c0.001,0,0.002,0.001,0.004,0.001L672.091,294.047z M660.746,288.629l-0.001,0.001
					C660.745,288.63,660.746,288.63,660.746,288.629z M693.435,283.514l-0.001,0.003
					C693.435,283.516,693.435,283.515,693.435,283.514z M682.621,272.42c-0.002,0.001-0.004,0.001-0.005,0.002L682.621,272.42z"/>
			</g>
		</g>
		<g>
			<g>
				<path style="fill:#93C2C9;" d="M941.26,581.482l0.775-11.806c0.013-0.194-0.071-0.382-0.224-0.503l-9.286-7.331
					c-0.385-0.304-0.254-0.917,0.221-1.037l11.467-2.911c0.189-0.048,0.342-0.185,0.409-0.368l4.102-11.097
					c0.17-0.46,0.793-0.525,1.055-0.11l6.313,10.006c0.104,0.165,0.282,0.268,0.477,0.275l11.822,0.473
					c0.49,0.02,0.744,0.592,0.431,0.969l-7.566,9.096c-0.124,0.15-0.167,0.351-0.115,0.538l3.204,11.389
					c0.133,0.472-0.333,0.891-0.788,0.709l-10.989-4.385c-0.181-0.072-0.385-0.051-0.547,0.057l-9.842,6.566
					C941.77,582.285,941.228,581.971,941.26,581.482z"/>
			</g>
		</g>
		<g>
			<g>
				<path style="fill:#EEB13D;" d="M594.88,386.338l-2.531-8.476c-0.042-0.139-0.149-0.25-0.288-0.294l-8.417-2.721
					c-0.349-0.113-0.417-0.576-0.115-0.785l7.28-5.026c0.12-0.083,0.191-0.219,0.191-0.365l-0.013-8.846
					c0-0.367,0.419-0.575,0.711-0.352l7.03,5.37c0.116,0.088,0.267,0.114,0.406,0.069l8.409-2.746
					c0.348-0.114,0.676,0.221,0.554,0.567l-2.935,8.345c-0.048,0.137-0.026,0.29,0.06,0.407l5.211,7.149
					c0.216,0.296-0.002,0.711-0.368,0.702l-8.844-0.213c-0.146-0.003-0.283,0.065-0.369,0.183l-5.189,7.165
					C595.447,386.767,594.985,386.689,594.88,386.338z"/>
			</g>
		</g>
		<g>
			<g>
				<path style="fill:#EEB13D;" d="M36.113,670.656l-2.528-5.912c-0.042-0.097-0.128-0.168-0.232-0.189l-6.304-1.269
					c-0.261-0.053-0.349-0.382-0.148-0.557l4.842-4.231c0.08-0.07,0.12-0.174,0.108-0.279l-0.741-6.387
					c-0.031-0.265,0.255-0.449,0.484-0.313l5.52,3.297c0.091,0.054,0.202,0.06,0.299,0.016l5.846-2.678
					c0.242-0.111,0.506,0.104,0.447,0.364l-1.43,6.269c-0.023,0.103,0.005,0.211,0.077,0.289l4.354,4.732
					c0.18,0.196,0.058,0.514-0.208,0.538l-6.404,0.577c-0.105,0.01-0.199,0.07-0.251,0.162l-3.155,5.603
					C36.558,670.92,36.218,670.901,36.113,670.656z"/>
			</g>
		</g>
		<g>
			<g>
				<path style="fill:#2483A4;" d="M369.473,334.919l-6.919-7.495c-0.114-0.123-0.281-0.183-0.447-0.159l-10.096,1.451
					c-0.418,0.06-0.724-0.385-0.517-0.754l4.99-8.896c0.082-0.146,0.087-0.324,0.013-0.474l-4.5-9.154
					c-0.186-0.379,0.143-0.808,0.557-0.725l10.003,1.996c0.165,0.033,0.335-0.017,0.455-0.134l7.315-7.108
					c0.303-0.294,0.812-0.114,0.862,0.306l1.192,10.13c0.02,0.167,0.12,0.313,0.268,0.391l9.021,4.761
					c0.374,0.197,0.359,0.737-0.025,0.914l-9.266,4.264c-0.152,0.07-0.261,0.211-0.289,0.376l-1.74,10.051
					C370.278,335.076,369.759,335.229,369.473,334.919z"/>
			</g>
		</g>
		<g>
			<g>
				<path style="fill:#2483A4;" d="M1125.088,657.213l-2.528-5.912c-0.042-0.097-0.128-0.168-0.232-0.189l-6.304-1.269
					c-0.261-0.053-0.349-0.382-0.148-0.557l4.842-4.231c0.08-0.07,0.12-0.174,0.108-0.279l-0.741-6.387
					c-0.031-0.265,0.255-0.45,0.484-0.313l5.52,3.297c0.091,0.054,0.203,0.06,0.299,0.016l5.846-2.678
					c0.242-0.111,0.506,0.104,0.447,0.364l-1.43,6.269c-0.023,0.103,0.005,0.211,0.077,0.289l4.354,4.732
					c0.18,0.196,0.058,0.514-0.208,0.538l-6.404,0.577c-0.105,0.01-0.199,0.07-0.251,0.162l-3.155,5.603
					C1125.533,657.476,1125.193,657.458,1125.088,657.213z"/>
			</g>
		</g>
		<g>
			<g>
				<path style="fill:#EEB13D;" d="M151.729,581.858l5.502-7.89c0.09-0.13,0.111-0.296,0.056-0.444l-3.381-9.006
					c-0.14-0.373,0.208-0.745,0.59-0.629l9.204,2.794c0.151,0.046,0.316,0.014,0.439-0.084l7.52-5.998
					c0.312-0.249,0.773-0.032,0.781,0.367l0.187,9.617c0.003,0.158,0.084,0.305,0.216,0.392l8.029,5.299
					c0.333,0.219,0.269,0.725-0.107,0.856l-9.089,3.149c-0.149,0.052-0.264,0.174-0.306,0.327l-2.558,9.273
					c-0.106,0.384-0.606,0.48-0.847,0.162l-5.804-7.671c-0.096-0.126-0.247-0.197-0.405-0.19l-9.609,0.432
					C151.747,582.631,151.501,582.185,151.729,581.858z"/>
			</g>
		</g>
		<g>
			<circle style="fill:#2483A4;" cx="839.61" cy="396.84" r="3.61"/>
		</g>
		<g>
			<g>
				<path style="fill:#EEB13D;" d="M954.542,113.331l-12.716-2.089c-0.209-0.034-0.422,0.036-0.569,0.189l-8.93,9.291
					c-0.37,0.385-1.021,0.179-1.101-0.349l-1.943-12.739c-0.032-0.21-0.165-0.39-0.356-0.482l-11.596-5.621
					c-0.48-0.233-0.485-0.916-0.008-1.155l11.515-5.785c0.19-0.095,0.32-0.277,0.349-0.487l1.763-12.766
					c0.073-0.529,0.721-0.744,1.096-0.365l9.06,9.164c0.149,0.151,0.363,0.218,0.571,0.181l12.686-2.268
					c0.526-0.094,0.931,0.455,0.686,0.93l-5.916,11.449c-0.097,0.188-0.096,0.412,0.004,0.6l6.077,11.364
					C955.466,112.863,955.069,113.418,954.542,113.331z"/>
			</g>
		</g>
	</g>
</g>
</svg>
